<?xml version="1.0" encoding="UTF-8"?>
<svg id="Layer_2" data-name="Layer 2" xmlns="http://www.w3.org/2000/svg" xmlns:xlink="http://www.w3.org/1999/xlink" viewBox="0 0 320.38 91.74">
  <defs>
    <style>
      .cls-1 {
        fill: none;
      }

      .cls-2 {
        fill: url(#linear-gradient-2);
      }

      .cls-3 {
        fill: url(#linear-gradient);
      }

      .cls-4 {
        fill: #22d3ee;
      }

      .cls-5 {
        fill: #fff;
      }

      .cls-6 {
        fill: #dfecee;
      }

      .cls-7 {
        clip-path: url(#clippath);
      }
    </style>
    <clipPath id="clippath">
      <rect class="cls-1" y="46.55" width="8.97" height="35.05"/>
    </clipPath>
    <linearGradient id="linear-gradient" x1="4.7" y1="46.55" x2="4.7" y2="82.25" gradientUnits="userSpaceOnUse">
      <stop offset="0" stop-color="#fff"/>
      <stop offset=".33" stop-color="#fcfefe"/>
      <stop offset=".47" stop-color="#f5fdfe"/>
      <stop offset=".57" stop-color="#e9fafd"/>
      <stop offset=".66" stop-color="#d7f7fb"/>
      <stop offset=".74" stop-color="#bff2fa"/>
      <stop offset=".81" stop-color="#a3ecf7"/>
      <stop offset=".87" stop-color="#81e5f5"/>
      <stop offset=".93" stop-color="#59def2"/>
      <stop offset=".99" stop-color="#2ed5ee"/>
      <stop offset="1" stop-color="#22d3ee"/>
    </linearGradient>
    <linearGradient id="linear-gradient-2" x1=".5" y1="20" x2="71.11" y2="-4.17" gradientUnits="userSpaceOnUse">
      <stop offset="0" stop-color="#fff"/>
      <stop offset=".04" stop-color="#e4f9fc"/>
      <stop offset=".13" stop-color="#b7f0f9"/>
      <stop offset=".22" stop-color="#8fe8f6"/>
      <stop offset=".31" stop-color="#6de2f3"/>
      <stop offset=".42" stop-color="#51dcf1"/>
      <stop offset=".52" stop-color="#3cd8f0"/>
      <stop offset=".64" stop-color="#2dd5ee"/>
      <stop offset=".79" stop-color="#24d3ee"/>
      <stop offset="1" stop-color="#22d3ee"/>
    </linearGradient>
  </defs>
  <g id="Layer_2-2" data-name="Layer 2">
    <g>
      <path class="cls-5" d="M130.61,15.09c-.99-1.54-2.34-2.71-4.13-3.54-1.75-.83-3.81-1.24-6.11-1.24h-14.6v5.19l6.03,6.44v-6.59h8.37c1.75,0,3.17.49,4.25,1.43,1.07.98,1.63,2.22,1.63,3.8v7.6c0,1.99-.48,3.5-1.43,4.52-.99,1.02-2.38,1.54-4.25,1.54h-8.57v-8.66h-6.03v9.82c0,1.17.4,2.11,1.19,2.82.79.72,1.83,1.05,3.06,1.05h10.52c3.81,0,6.67-.9,8.61-2.75,1.94-1.84,2.94-4.52,2.94-8.09v-8.13c0-1.96-.52-3.73-1.47-5.23Z"/>
      <path class="cls-5" d="M141.34,38.24c-1.76-.93-3.13-2.22-4.1-3.89-.97-1.67-1.46-3.61-1.46-5.82v-7.45c0-2.21.49-4.15,1.46-5.82.98-1.67,2.34-2.97,4.1-3.89,1.76-.92,3.79-1.39,6.09-1.39h4.63c2.3,0,4.32.46,6.09,1.39,1.76.93,3.13,2.22,4.1,3.89.97,1.67,1.46,3.61,1.46,5.82v7.45c0,2.21-.49,4.15-1.46,5.82-.98,1.67-2.34,2.97-4.1,3.89-1.76.92-3.79,1.39-6.09,1.39h-4.63c-2.3,0-4.33-.46-6.09-1.39ZM152.06,34.58c1.69,0,3.05-.58,4.08-1.74,1.03-1.16,1.55-2.68,1.55-4.55v-6.96c0-1.87-.52-3.39-1.55-4.55-1.03-1.16-2.39-1.74-4.08-1.74h-4.63c-1.69,0-3.05.58-4.08,1.74-1.03,1.16-1.55,2.68-1.55,4.55v6.96c0,1.88.52,3.39,1.55,4.55,1.03,1.16,2.39,1.74,4.08,1.74h4.63Z"/>
      <path class="cls-5" d="M168.47,10.31h16.11c1.77,0,3.34.33,4.71.97,1.37.65,2.43,1.57,3.19,2.77.76,1.2,1.13,2.57,1.13,4.12v3.85c0,1.6-.39,3.01-1.18,4.24-.78,1.23-1.88,2.18-3.29,2.86-1.41.68-3.05,1.01-4.91,1.01h-9.73v9.15h-6.03V10.31ZM184.14,25.18c1.02,0,1.85-.31,2.49-.93.64-.62.96-1.44.96-2.47v-3.35c0-.97-.28-1.73-.85-2.3-.57-.57-1.32-.85-2.25-.85h-9.99v9.89h9.65Z"/>
      <path class="cls-5" d="M201.84,38.24c-1.76-.93-3.13-2.22-4.1-3.89-.97-1.67-1.46-3.61-1.46-5.82v-7.45c0-2.21.49-4.15,1.46-5.82.98-1.67,2.34-2.97,4.1-3.89,1.76-.92,3.79-1.39,6.09-1.39h4.63c2.3,0,4.32.46,6.09,1.39,1.76.93,3.13,2.22,4.1,3.89.97,1.67,1.46,3.61,1.46,5.82v7.45c0,2.21-.49,4.15-1.46,5.82-.98,1.67-2.34,2.97-4.1,3.89-1.76.92-3.79,1.39-6.09,1.39h-4.63c-2.3,0-4.33-.46-6.09-1.39ZM212.56,34.58c1.69,0,3.05-.58,4.08-1.74,1.03-1.16,1.55-2.68,1.55-4.55v-6.96c0-1.87-.52-3.39-1.55-4.55-1.03-1.16-2.39-1.74-4.08-1.74h-4.63c-1.69,0-3.05.58-4.08,1.74-1.03,1.16-1.55,2.68-1.55,4.55v6.96c0,1.88.52,3.39,1.55,4.55,1.03,1.16,2.39,1.74,4.08,1.74h4.63Z"/>
      <path class="cls-5" d="M228.97,10.31h5.37l9.99,17.22,9.78-17.22h5.37v28.98h-5.89v-18.34l-6.42,11.01c-.43.75-.88,1.28-1.33,1.6-.45.32-.97.47-1.55.47h-1.66l-7.77-13.08v18.34h-5.89V10.31Z"/>
      <path class="cls-5" d="M283.01,32.55h-11.44l-2.7,6.75h-6.29l11.96-28.98h2.71c1.89,0,3.17.83,3.84,2.48l10.87,26.5h-6.29l-2.66-6.75ZM273.19,27.74h8.21l-4.06-10.43h-.04l-4.1,10.43Z"/>
      <path class="cls-5" d="M298.57,38.26c-1.7-.91-3.02-2.2-3.95-3.87-.93-1.67-1.4-3.59-1.4-5.77v-7.62c0-2.18.47-4.11,1.42-5.77s2.29-2.96,4.01-3.87c1.73-.91,3.74-1.37,6-1.37h4.63c2.18,0,4.1.44,5.76,1.33,1.66.88,2.95,2.12,3.86,3.7.91,1.59,1.38,3.43,1.38,5.52h-5.94c0-1.65-.47-2.98-1.4-4-.93-1.01-2.15-1.51-3.67-1.51h-4.63c-1.63,0-2.94.57-3.93,1.72-.99,1.14-1.48,2.64-1.48,4.49v7.12c0,1.85.48,3.35,1.44,4.49.96,1.15,2.23,1.72,3.8,1.72h4.72c1.54,0,2.8-.57,3.77-1.7s1.46-2.62,1.46-4.47h5.94c0,2.23-.47,4.2-1.4,5.9-.93,1.7-2.24,3.01-3.93,3.93-1.69.92-3.64,1.39-5.85,1.39h-4.72c-2.24,0-4.21-.46-5.91-1.37Z"/>
      <path class="cls-5" d="M115.11,86.76c-1.8-1.69-2.7-4.06-2.7-7.1h5.94c0,1.43.38,2.56,1.15,3.37.77.81,1.84,1.22,3.21,1.22h4.85c1.28,0,2.32-.25,3.12-.76.8-.51,1.2-1.19,1.2-2.05v-1.41c0-1.35-1.05-2.19-3.14-2.52l-8.03-1.28c-2.62-.42-4.6-1.21-5.96-2.38-1.36-1.17-2.03-2.67-2.03-4.49v-2.32c0-1.46.41-2.75,1.24-3.87s2.01-1.98,3.53-2.59c1.53-.61,3.3-.91,5.31-.91h4.93c1.89,0,3.56.37,5.02,1.12,1.45.75,2.58,1.79,3.38,3.13.8,1.34,1.2,2.89,1.2,4.66h-5.94c0-1.16-.34-2.09-1-2.79-.67-.71-1.56-1.06-2.66-1.06h-4.93c-1.22,0-2.21.25-2.95.75-.74.5-1.12,1.16-1.12,1.99v1.12c0,1.38,1,2.23,3.02,2.57l7.99,1.33c2.65.44,4.67,1.22,6.07,2.34,1.4,1.12,2.09,2.56,2.09,4.33v2.73c0,1.46-.43,2.76-1.29,3.89-.86,1.13-2.06,2.01-3.6,2.63s-3.33.93-5.37.93h-5.02c-3.2,0-5.7-.85-7.51-2.55Z"/>
      <path class="cls-5" d="M149.94,77.71l-11.31-17.72h6.55l7.77,12.46,7.77-12.46h6.55l-11.31,17.72v11.26h-6.02v-11.26Z"/>
      <path class="cls-5" d="M170.9,86.76c-1.8-1.69-2.7-4.06-2.7-7.1h5.94c0,1.43.38,2.56,1.15,3.37.77.81,1.84,1.22,3.21,1.22h4.85c1.28,0,2.32-.25,3.12-.76.8-.51,1.2-1.19,1.2-2.05v-1.41c0-1.35-1.05-2.19-3.14-2.52l-8.03-1.28c-2.62-.42-4.6-1.21-5.96-2.38-1.36-1.17-2.03-2.67-2.03-4.49v-2.32c0-1.46.41-2.75,1.24-3.87.83-1.12,2.01-1.98,3.53-2.59,1.53-.61,3.3-.91,5.31-.91h4.93c1.89,0,3.56.37,5.02,1.12,1.45.75,2.58,1.79,3.38,3.13.8,1.34,1.2,2.89,1.2,4.66h-5.94c0-1.16-.34-2.09-1-2.79-.67-.71-1.56-1.06-2.66-1.06h-4.93c-1.22,0-2.21.25-2.95.75-.74.5-1.12,1.16-1.12,1.99v1.12c0,1.38,1,2.23,3.02,2.57l7.99,1.33c2.65.44,4.67,1.22,6.07,2.34,1.4,1.12,2.09,2.56,2.09,4.33v2.73c0,1.46-.43,2.76-1.29,3.89-.86,1.13-2.06,2.01-3.6,2.63s-3.33.93-5.37.93h-5.02c-3.2,0-5.7-.85-7.51-2.55Z"/>
      <polygon class="cls-5" points="220.61 59.97 220.61 64.94 210.92 64.94 210.92 88.95 204.89 88.95 204.89 64.94 195.21 64.94 195.21 59.97 220.61 59.97"/>
      <path class="cls-5" d="M225.24,87.9c-.78-.72-1.18-1.65-1.18-2.82v-25.09h23.31v4.97h-17.28v6.71h15.97v4.97h-15.97v7.37h17.28v4.97h-19.07c-1.25,0-2.27-.36-3.06-1.08Z"/>
      <path class="cls-5" d="M251.7,59.99h5.37l9.99,17.22,9.78-17.22h5.37v28.98h-5.89v-18.34l-6.42,11.01c-.43.75-.88,1.28-1.33,1.6-.45.32-.97.47-1.55.47h-1.66l-7.77-13.08v18.34h-5.89v-28.98Z"/>
      <path class="cls-5" d="M289.5,86.76c-1.8-1.69-2.7-4.06-2.7-7.1h5.94c0,1.43.38,2.56,1.15,3.37.77.81,1.84,1.22,3.21,1.22h4.85c1.28,0,2.32-.25,3.12-.76.8-.51,1.2-1.19,1.2-2.05v-1.41c0-1.35-1.05-2.19-3.14-2.52l-8.03-1.28c-2.62-.42-4.6-1.21-5.96-2.38-1.36-1.17-2.03-2.67-2.03-4.49v-2.32c0-1.46.41-2.75,1.24-3.87.83-1.12,2.01-1.98,3.53-2.59,1.53-.61,3.3-.91,5.31-.91h4.93c1.89,0,3.56.37,5.02,1.12,1.45.75,2.58,1.79,3.38,3.13.8,1.34,1.2,2.89,1.2,4.66h-5.94c0-1.16-.34-2.09-1-2.79-.67-.71-1.56-1.06-2.66-1.06h-4.93c-1.22,0-2.21.25-2.95.75-.74.5-1.12,1.16-1.12,1.99v1.12c0,1.38,1,2.23,3.02,2.57l7.99,1.33c2.65.44,4.67,1.22,6.07,2.34,1.4,1.12,2.09,2.56,2.09,4.33v2.73c0,1.46-.43,2.76-1.29,3.89-.86,1.13-2.06,2.01-3.6,2.63s-3.33.93-5.37.93h-5.02c-3.2,0-5.7-.85-7.51-2.55Z"/>
    </g>
    <g>
      <g class="cls-7">
        <rect class="cls-3" x="-.23" y="46.55" width="9.87" height="35.7"/>
      </g>
      <polygon class="cls-2" points=".03 0 .03 27.25 .03 27.13 9 37.24 9 10.11 8.91 10.02 74.66 10.02 65.79 0 .03 0"/>
      <polygon class="cls-6" points="74.66 10.02 74.68 38.2 65.71 28.09 65.71 10.02 74.66 10.02"/>
      <polygon class="cls-4" points="74.69 91.74 8.97 91.74 0 81.61 65.73 81.61 74.69 91.74"/>
    </g>
  </g>
</svg>